<?xml version="1.0" encoding="utf-8"?>
<!-- Generator: Adobe Illustrator 21.0.2, SVG Export Plug-In . SVG Version: 6.00 Build 0)  -->
<svg version="1.1" id="Layer_1" xmlns="http://www.w3.org/2000/svg" xmlns:xlink="http://www.w3.org/1999/xlink" x="0px" y="0px"
	 viewBox="0 0 100 100" style="enable-background:new 0 0 100 100;" xml:space="preserve">
<path d="M82,18.4c0-0.1-0.1-0.1-0.2-0.2s-0.1-0.1-0.2-0.2C73.5,10,62.3,5,50,5s-23.5,5-31.6,13c-0.1,0.1-0.2,0.1-0.2,0.2
	s-0.1,0.1-0.2,0.2C10,26.5,5,37.7,5,50s5,23.5,13,31.6c0,0.1,0.1,0.1,0.2,0.2s0.1,0.1,0.2,0.2c8.1,8,19.3,13,31.6,13s23.5-5,31.6-13
	c0.1-0.1,0.2-0.1,0.2-0.2s0.1-0.1,0.2-0.2c8-8.1,13-19.3,13-31.6S90,26.5,82,18.4z M80.4,77.5l-4.2-4.2c-0.8-0.8-2-0.8-2.8,0
	c-0.8,0.8-0.8,2.1,0,2.8l4.2,4.2C70.2,87,60.6,91,50,91s-20.2-4-27.5-10.6l4.2-4.2c0.8-0.8,0.8-2,0-2.8c-0.8-0.8-2-0.8-2.8,0
	l-4.2,4.2C13.5,70.7,9.5,61.8,9,52h6c1.1,0,2-0.9,2-2c0-1.1-0.9-2-2-2H9c0.5-9.8,4.4-18.7,10.6-25.5l4.2,4.2
	c0.4,0.4,0.9,0.6,1.4,0.6s1-0.2,1.4-0.6c0.8-0.8,0.8-2,0-2.8l-4.2-4.2C29.3,13.5,38.2,9.5,48,9v6c0,1.1,0.9,2,2,2s2-0.9,2-2V9
	c9.8,0.5,18.7,4.4,25.5,10.6l-4.2,4.2c-0.8,0.8-0.8,2,0,2.8c0.4,0.4,0.9,0.6,1.4,0.6s1-0.2,1.4-0.6l4.2-4.2
	C86.5,29.3,90.5,38.2,91,48h-6c-1.1,0-2,0.9-2,2c0,1.1,0.9,2,2,2h6C90.5,61.8,86.5,70.7,80.4,77.5z M52,77.6c0,0.1,0,0.3,0,0.4
	c0,0.5-0.2,1-0.6,1.4C51,79.8,50.5,80,50,80c-0.1,0-0.3,0-0.4,0c-0.1,0-0.3-0.1-0.4-0.1s-0.2-0.1-0.3-0.2c-0.1-0.1-0.2-0.1-0.3-0.2
	C48.2,79,48,78.5,48,78c0-0.1,0-0.3,0-0.4c0-0.1,0.1-0.3,0.1-0.4c0-0.1,0.1-0.2,0.2-0.3c0.1-0.1,0.1-0.2,0.2-0.3
	c0.1-0.1,0.2-0.2,0.3-0.2c0.1-0.1,0.2-0.1,0.3-0.2c0.1,0,0.2-0.1,0.4-0.1c0.3,0,0.5,0,0.8,0c0.1,0,0.2,0.1,0.4,0.1
	c0.1,0.1,0.2,0.1,0.3,0.2c0.1,0.1,0.2,0.2,0.3,0.2c0.1,0.1,0.2,0.2,0.2,0.3c0.1,0.1,0.1,0.2,0.2,0.3C51.9,77.3,51.9,77.5,52,77.6z
	 M62,77.6c0,0.1,0,0.3,0,0.4c0,0.5-0.2,1-0.6,1.4c-0.2,0.2-0.4,0.3-0.6,0.4C60.5,80,60.3,80,60,80s-0.5,0-0.8-0.2
	c-0.2-0.1-0.5-0.2-0.6-0.4C58.2,79,58,78.5,58,78c0-0.1,0-0.3,0-0.4c0-0.1,0.1-0.3,0.1-0.4c0-0.1,0.1-0.2,0.2-0.3
	c0.1-0.1,0.1-0.2,0.2-0.3c0.7-0.8,2.1-0.8,2.8,0c0.1,0.1,0.2,0.2,0.2,0.3c0.1,0.1,0.1,0.2,0.2,0.3C61.9,77.3,61.9,77.5,62,77.6z
	 M42,77.6c0,0.1,0,0.3,0,0.4c0,0.5-0.2,1-0.6,1.4c-0.1,0.1-0.2,0.2-0.3,0.2c-0.1,0.1-0.2,0.1-0.3,0.2s-0.2,0.1-0.4,0.1
	c-0.1,0-0.3,0-0.4,0c-0.3,0-0.5,0-0.8-0.2c-0.2-0.1-0.5-0.2-0.6-0.4C38.2,79,38,78.5,38,78c0-0.1,0-0.3,0-0.4c0-0.1,0.1-0.3,0.1-0.4
	c0-0.1,0.1-0.2,0.2-0.3c0.1-0.1,0.1-0.2,0.2-0.3c0.1-0.1,0.2-0.2,0.3-0.2c0.1-0.1,0.2-0.1,0.3-0.2c0.1,0,0.2-0.1,0.4-0.1
	c0.3,0,0.5,0,0.8,0c0.1,0,0.3,0.1,0.4,0.1c0.1,0.1,0.2,0.1,0.3,0.2c0.1,0.1,0.2,0.2,0.3,0.2c0.1,0.1,0.2,0.2,0.2,0.3
	c0.1,0.1,0.1,0.2,0.2,0.3C41.9,77.3,41.9,77.5,42,77.6z M66.6,30.6l-14,14C51.8,44.2,50.9,44,50,44c-3.3,0-6,2.7-6,6s2.7,6,6,6
	s6-2.7,6-6c0-0.9-0.2-1.8-0.6-2.6l14-14c0.8-0.8,0.8-2,0-2.8C68.6,29.8,67.4,29.8,66.6,30.6z M50,52c-1.1,0-2-0.9-2-2
	c0-1.1,0.9-2,2-2s2,0.9,2,2C52,51.1,51.1,52,50,52z"/>
</svg>
